<?xml version="1.0" encoding="utf-8"?>
<!-- Generator: Adobe Illustrator 19.2.1, SVG Export Plug-In . SVG Version: 6.00 Build 0)  -->
<!DOCTYPE svg PUBLIC "-//W3C//DTD SVG 1.1//EN" "http://www.w3.org/Graphics/SVG/1.1/DTD/svg11.dtd">
<svg version="1.1" xmlns="http://www.w3.org/2000/svg" xmlns:xlink="http://www.w3.org/1999/xlink" x="0px" y="0px"
	 viewBox="0 0 984 741.9" style="enable-background:new 0 0 984 741.9;" xml:space="preserve">
<style type="text/css">
	.st0{fill:#00B2E2;stroke:#000000;stroke-width:1.2386;stroke-miterlimit:10;}
	.st1{fill:#FFFFFF;}
	.st2{fill:#787878;}
	.st3{fill:none;stroke:#000000;stroke-width:1.2386;stroke-miterlimit:10;}
	.st4{display:none;}
</style>
<g id="Layer_1">
	<rect x="162.1" y="118" class="st0" width="663" height="298.5"/>
	<g>
		
			<image style="overflow:visible;opacity:0.34;enable-background:new    ;" width="1043" height="787" xlink:href="18B3F884.png"  transform="matrix(0.9661 0 0 0.9661 -11.181 -5.1259)">
		</image>
		<g>
			<path class="st1" d="M983.4,741.9H-5.9V0h989.2V741.9z M416.6,162.8l2.2-17h-47.7v82.8h47.1v-17.1h-25.7v-16.6h21.1v-16.5h-21.1
				v-15.5L416.6,162.8L416.6,162.8z M466.1,228.6l18.4-82.8h-22l-10,65.8l-11-65.8h-22.6l19.5,82.8L466.1,228.6L466.1,228.6z
				 M517.4,212.5l2.8,16H543l-21.1-82.8h-25.7L475,228.6h22.4l2.7-16H517.4z M514.4,195.4h-11.2l5.5-32.5L514.4,195.4z M604.3,228.6
				v-82.8h-19v26.6c0,15,1.5,24.5,2.9,34.1l-16.5-60.7h-26.4v82.8h19v-25.7c0-15.4-1.7-26.8-2.8-34.8l15.8,60.4L604.3,228.6
				L604.3,228.6L604.3,228.6z M311,249.1h-26.2v82.8h21.4v-25.8h7.1c17.2,0,29.1-9.8,29.1-29.2C342.5,258.4,330.5,249.1,311,249.1z
				 M311.3,288.9h-5v-22.7h4.3c7.1,0,10,4.1,10,10.8C320.6,285.1,317.4,288.9,311.3,288.9z M394.6,266.1l2.2-17h-47.7v82.8h47.1
				v-17.1h-25.7v-16.6h21.1v-16.5h-21.1v-15.5L394.6,266.1L394.6,266.1z M427.1,249.1h-23.3v82.8h24.5c20.3,0,37.4-8.7,37.4-41.7
				C465.7,256.2,447,249.1,427.1,249.1z M425.3,266.4h4.3c9.2,0,13.9,5,13.9,23.8c0,18.8-4.3,24.5-14,24.5h-4.3V266.4z M498.2,302.5
				l13.4,29.5h23.8l-17.8-34c8.9-5.8,12.8-12,12.8-22.5c0-18.2-10.4-26.3-31.2-26.3h-26.6v82.8h21.4v-29.5H498.2z M494.3,286V266
				h4.6c6.4,0,9.9,3,9.9,9.5c0,7.2-2.9,10.6-8.8,10.6H494.3z M560,331.9v-82.8h-21.4v82.8H560z M601.2,246.8
				c-20,0-34.2,15.9-34.2,43.6c0,28.7,13.6,44.1,34.9,44.1c10.2,0,18.6-5.5,24-11.5l-9.4-13.8c-4.3,3.8-8.2,6.9-13.3,6.9
				c-8.7,0-13.8-8.1-13.8-25.6s5-25.9,13.1-25.9c5,0,8.9,2.2,12.3,5.8l10.2-13.7C618.9,250.5,611.4,246.8,601.2,246.8z M652.3,331.9
				v-82.8h-21.4v82.8H652.3z M674.8,286l20.6-36.7h-22.1L653,287.9l19.8,44.1h24.4L674.8,286z"/>
		</g>
	</g>
	<g>
		<path class="st2" d="M345.3,373l0.6,2.7l0.7-2.6l3.8-13h1.4l3.8,13l0.7,2.7l0.6-2.8l3.2-12.9h1.5l-4.5,17.6h-1.4l-4-13.7l-0.4-1.7
			l-0.4,1.7l-4.1,13.7h-1.4l-4.5-17.6h1.5L345.3,373z"/>
		<path class="st2" d="M368.6,377.9c-0.9,0-1.6-0.2-2.4-0.5s-1.4-0.7-1.9-1.3s-0.9-1.2-1.2-2s-0.4-1.6-0.4-2.6V371
			c0-1,0.1-1.9,0.4-2.7c0.3-0.8,0.7-1.5,1.2-2.1s1.1-1.1,1.8-1.4c0.7-0.3,1.4-0.5,2.1-0.5c0.8,0,1.5,0.1,2.2,0.4s1.2,0.7,1.6,1.2
			c0.4,0.5,0.7,1.2,1,1.9c0.2,0.7,0.3,1.5,0.3,2.4v0.9h-9.4v0.2c0,0.7,0.1,1.4,0.3,2c0.2,0.7,0.5,1.2,0.9,1.7
			c0.4,0.5,0.9,0.9,1.4,1.1s1.2,0.4,1.8,0.4c0.8,0,1.5-0.1,2-0.4c0.6-0.3,1.1-0.7,1.6-1.4l0.9,0.7c-0.2,0.3-0.5,0.6-0.7,0.9
			s-0.6,0.6-1,0.7c-0.4,0.2-0.8,0.4-1.3,0.5C369.6,377.8,369.2,377.9,368.6,377.9z M368.4,365.6c-0.6,0-1.1,0.1-1.5,0.3
			c-0.5,0.2-0.9,0.5-1.2,0.9c-0.4,0.4-0.7,0.9-0.9,1.4c-0.2,0.6-0.4,1.2-0.5,1.8h7.9v-0.2c0-0.6-0.1-1.1-0.2-1.6
			c-0.1-0.6-0.4-1-0.7-1.4c-0.3-0.4-0.7-0.7-1.2-0.9C369.5,365.7,369,365.6,368.4,365.6z"/>
		<path class="st2" d="M386.9,371.3c0,1-0.1,1.9-0.3,2.7s-0.6,1.5-1,2.1c-0.4,0.6-0.9,1.1-1.5,1.4c-0.6,0.3-1.3,0.5-2.1,0.5
			c-0.9,0-1.8-0.2-2.5-0.6c-0.7-0.4-1.2-0.9-1.7-1.5l-0.1,1.8h-1.4v-18.6h1.4v7.4c0.4-0.7,1-1.2,1.7-1.5s1.5-0.6,2.4-0.6
			c0.8,0,1.5,0.2,2.1,0.5c0.6,0.3,1.2,0.7,1.5,1.4c0.4,0.6,0.7,1.3,1,2.1c0.2,0.8,0.3,1.7,0.3,2.7L386.9,371.3L386.9,371.3
			L386.9,371.3z M385.4,371.1c0-0.7-0.1-1.5-0.2-2.1c-0.2-0.6-0.4-1.2-0.7-1.7s-0.7-0.9-1.2-1.1c-0.5-0.2-1.1-0.4-1.7-0.4
			c-0.6,0-1.1,0.1-1.4,0.2c-0.4,0.2-0.8,0.4-1.1,0.6s-0.6,0.6-0.8,0.9c-0.2,0.3-0.4,0.7-0.5,1v5.9c0.1,0.4,0.4,0.7,0.6,1
			s0.5,0.6,0.8,0.8c0.3,0.2,0.7,0.4,1.1,0.5c0.4,0.1,0.9,0.2,1.4,0.2c0.7,0,1.2-0.1,1.7-0.4s0.9-0.7,1.2-1.1s0.6-1.1,0.7-1.7
			c0.1-0.7,0.2-1.4,0.2-2.1v-0.3H385.4z"/>
		<path class="st2" d="M396.4,377.7v-17.6h4.9c1.1,0,2.1,0.2,3,0.6c0.9,0.4,1.7,0.9,2.4,1.6s1.2,1.5,1.5,2.5c0.4,1,0.6,2.1,0.6,3.3
			v1.6c0,1.2-0.2,2.3-0.6,3.3c-0.4,1-0.9,1.8-1.5,2.5c-0.7,0.7-1.5,1.2-2.4,1.6c-0.9,0.4-2,0.6-3.1,0.6H396.4z M397.9,361.3v15.1
			h3.3c0.9,0,1.8-0.2,2.5-0.5c0.7-0.3,1.4-0.8,1.9-1.4c0.5-0.6,0.9-1.3,1.2-2.1c0.3-0.8,0.4-1.7,0.4-2.7v-1.7c0-1-0.1-1.9-0.4-2.8
			s-0.7-1.5-1.2-2.1c-0.6-0.6-1.2-1.1-1.9-1.4s-1.5-0.5-2.5-0.5H397.9z"/>
		<path class="st2" d="M417.4,377.9c-0.9,0-1.6-0.2-2.4-0.5s-1.4-0.7-1.9-1.3s-0.9-1.2-1.2-2c-0.3-0.8-0.4-1.6-0.4-2.6V371
			c0-1,0.1-1.9,0.4-2.7c0.3-0.8,0.7-1.5,1.2-2.1s1.1-1.1,1.8-1.4c0.7-0.3,1.4-0.5,2.1-0.5c0.8,0,1.5,0.1,2.2,0.4s1.2,0.7,1.6,1.2
			c0.4,0.5,0.7,1.2,1,1.9s0.3,1.5,0.3,2.4v0.9h-9.4v0.2c0,0.7,0.1,1.4,0.3,2c0.2,0.7,0.5,1.2,0.9,1.7c0.4,0.5,0.9,0.9,1.4,1.1
			s1.2,0.4,1.8,0.4c0.8,0,1.5-0.1,2-0.4s1.1-0.7,1.6-1.4l0.9,0.7c-0.2,0.3-0.5,0.6-0.7,0.9s-0.6,0.6-1,0.7c-0.4,0.2-0.8,0.4-1.3,0.5
			C418.4,377.8,418,377.9,417.4,377.9z M417.1,365.6c-0.6,0-1.1,0.1-1.5,0.3s-0.9,0.5-1.2,0.9c-0.4,0.4-0.7,0.9-0.9,1.4
			c-0.2,0.6-0.4,1.2-0.5,1.8h7.9v-0.2c0-0.6-0.1-1.1-0.2-1.6c-0.1-0.6-0.4-1-0.7-1.4c-0.3-0.4-0.7-0.7-1.2-0.9
			C418.3,365.7,417.7,365.6,417.1,365.6z"/>
		<path class="st2" d="M429.1,375.7l4-11.1h1.5l-4.9,13.1h-1.2l-4.9-13.1h1.5L429.1,375.7z"/>
		<path class="st2" d="M441.8,377.9c-0.9,0-1.6-0.2-2.4-0.5s-1.4-0.7-1.9-1.3c-0.5-0.6-0.9-1.2-1.2-2s-0.4-1.6-0.4-2.6V371
			c0-1,0.1-1.9,0.4-2.7c0.3-0.8,0.7-1.5,1.2-2.1c0.6-0.6,1.1-1.1,1.8-1.4c0.7-0.3,1.4-0.5,2.1-0.5c0.8,0,1.5,0.1,2.2,0.4
			c0.7,0.3,1.2,0.7,1.6,1.2c0.4,0.5,0.7,1.2,1,1.9c0.2,0.7,0.3,1.5,0.3,2.4v0.9h-9.4v0.2c0,0.7,0.1,1.4,0.3,2
			c0.2,0.7,0.5,1.2,0.9,1.7c0.4,0.5,0.9,0.9,1.4,1.1c0.6,0.2,1.2,0.4,1.8,0.4c0.8,0,1.5-0.1,2-0.4c0.6-0.3,1.1-0.7,1.6-1.4l0.9,0.7
			c-0.2,0.3-0.5,0.6-0.7,0.9s-0.6,0.6-1,0.7c-0.4,0.2-0.8,0.4-1.3,0.5C442.8,377.8,442.4,377.9,441.8,377.9z M441.5,365.6
			c-0.6,0-1.1,0.1-1.5,0.3c-0.5,0.2-0.9,0.5-1.2,0.9c-0.4,0.4-0.7,0.9-0.9,1.4c-0.2,0.6-0.4,1.2-0.5,1.8h7.9v-0.2
			c0-0.6-0.1-1.1-0.2-1.6c-0.1-0.6-0.4-1-0.7-1.4c-0.3-0.4-0.7-0.7-1.2-0.9C442.6,365.7,442.1,365.6,441.5,365.6z"/>
		<path class="st2" d="M451.1,377.7h-1.4v-18.6h1.4V377.7z"/>
		<path class="st2" d="M454.3,371c0-0.9,0.1-1.9,0.4-2.7c0.3-0.8,0.7-1.5,1.2-2.1s1.1-1.1,1.9-1.4c0.7-0.3,1.5-0.5,2.4-0.5
			c0.9,0,1.7,0.2,2.4,0.5c0.7,0.3,1.4,0.8,1.9,1.4c0.5,0.6,0.9,1.3,1.2,2.1c0.2,0.8,0.4,1.7,0.4,2.7v0.4c0,0.9-0.1,1.9-0.4,2.7
			c-0.3,0.8-0.7,1.5-1.2,2.1c-0.5,0.6-1.1,1.1-1.9,1.4c-0.7,0.3-1.5,0.5-2.4,0.5s-1.7-0.2-2.4-0.5c-0.7-0.3-1.4-0.8-1.9-1.4
			c-0.5-0.6-0.9-1.3-1.2-2.1c-0.2-0.8-0.4-1.7-0.4-2.7V371z M455.7,371.4c0,0.7,0.1,1.4,0.3,2s0.5,1.2,0.9,1.7
			c0.4,0.5,0.8,0.9,1.4,1.2s1.2,0.4,1.9,0.4s1.4-0.1,1.9-0.4s1-0.7,1.4-1.2c0.4-0.5,0.7-1.1,0.9-1.7s0.3-1.4,0.3-2V371
			c0-0.7-0.1-1.4-0.3-2c-0.2-0.7-0.5-1.2-0.9-1.7c-0.4-0.5-0.8-0.9-1.4-1.2s-1.2-0.4-1.9-0.4c-0.7,0-1.3,0.1-1.9,0.4s-1,0.7-1.4,1.2
			c-0.4,0.5-0.7,1.1-0.9,1.7c-0.2,0.7-0.3,1.3-0.3,2L455.7,371.4L455.7,371.4z"/>
		<path class="st2" d="M479.5,371.3c0,1-0.1,1.9-0.3,2.7s-0.6,1.5-1,2.1c-0.4,0.6-0.9,1.1-1.5,1.4c-0.6,0.3-1.3,0.5-2.1,0.5
			c-0.9,0-1.7-0.2-2.4-0.5c-0.7-0.3-1.2-0.8-1.7-1.4v6.7H469v-18.1h1.4l0.1,1.9c0.4-0.7,1-1.2,1.7-1.5c0.7-0.4,1.5-0.6,2.4-0.6
			c0.8,0,1.5,0.2,2.1,0.5c0.6,0.3,1.2,0.7,1.5,1.4c0.4,0.6,0.7,1.3,1,2.1c0.2,0.8,0.3,1.7,0.3,2.7L479.5,371.3L479.5,371.3z
			 M478,371.1c0-0.7-0.1-1.5-0.2-2.1c-0.2-0.6-0.4-1.2-0.7-1.7s-0.7-0.9-1.2-1.1c-0.5-0.2-1.1-0.4-1.7-0.4c-0.5,0-1,0.1-1.4,0.2
			c-0.4,0.1-0.7,0.3-1.1,0.6s-0.6,0.5-0.8,0.8c-0.2,0.3-0.4,0.6-0.5,0.9v6.3c0.1,0.3,0.4,0.6,0.6,0.9s0.5,0.5,0.8,0.7
			s0.7,0.4,1.1,0.5c0.4,0.1,0.9,0.2,1.3,0.2c0.7,0,1.2-0.1,1.7-0.4c0.5-0.3,0.9-0.7,1.2-1.2c0.3-0.5,0.6-1.1,0.7-1.7
			c0.2-0.7,0.2-1.4,0.2-2.2L478,371.1L478,371.1z"/>
		<path class="st2" d="M487.7,377.9c-0.9,0-1.6-0.2-2.4-0.5s-1.4-0.7-1.9-1.3c-0.5-0.6-0.9-1.2-1.2-2s-0.4-1.6-0.4-2.6V371
			c0-1,0.1-1.9,0.4-2.7c0.3-0.8,0.7-1.5,1.2-2.1c0.6-0.6,1.1-1.1,1.8-1.4s1.4-0.5,2.1-0.5c0.8,0,1.5,0.1,2.2,0.4
			c0.7,0.3,1.2,0.7,1.6,1.2c0.4,0.5,0.7,1.2,1,1.9c0.2,0.7,0.3,1.5,0.3,2.4v0.9h-9.4v0.2c0,0.7,0.1,1.4,0.3,2
			c0.2,0.7,0.5,1.2,0.9,1.7c0.4,0.5,0.9,0.9,1.4,1.1c0.6,0.2,1.2,0.4,1.8,0.4c0.8,0,1.5-0.1,2-0.4c0.6-0.3,1.1-0.7,1.6-1.4l0.9,0.7
			c-0.2,0.3-0.5,0.6-0.7,0.9s-0.6,0.6-1,0.7c-0.4,0.2-0.8,0.4-1.3,0.5C488.7,377.8,488.3,377.9,487.7,377.9z M487.5,365.6
			c-0.6,0-1.1,0.1-1.5,0.3s-0.9,0.5-1.2,0.9c-0.4,0.4-0.7,0.9-0.9,1.4c-0.2,0.6-0.4,1.2-0.5,1.8h7.9v-0.2c0-0.6-0.1-1.1-0.2-1.6
			c-0.1-0.6-0.4-1-0.7-1.4c-0.3-0.4-0.7-0.7-1.2-0.9C488.6,365.7,488.1,365.6,487.5,365.6z"/>
		<path class="st2" d="M501.5,365.9c-0.3-0.1-0.6-0.1-1-0.1c-0.5,0-0.9,0.1-1.3,0.2c-0.4,0.2-0.7,0.4-1.1,0.6
			c-0.3,0.2-0.6,0.6-0.7,0.9c-0.2,0.4-0.4,0.7-0.5,1.2v9h-1.4v-13.1h1.4v2.1c0.4-0.7,0.9-1.3,1.4-1.7c0.6-0.4,1.4-0.6,2.2-0.6
			c0.2,0,0.4,0,0.6,0.1c0.2,0.1,0.3,0.1,0.4,0.1L501.5,365.9z"/>
		<path class="st2" d="M503.6,379.2h-1.3l7.4-19.1h1.3L503.6,379.2z"/>
		<path class="st2" d="M515.5,370.6v7.2H514v-17.6h6c1,0,1.8,0.1,2.5,0.4c0.7,0.2,1.4,0.6,1.9,1.1c0.5,0.4,0.9,1,1.1,1.7
			c0.2,0.7,0.4,1.4,0.4,2.1c0,0.8-0.1,1.5-0.4,2.2c-0.2,0.6-0.6,1.2-1.1,1.6c-0.5,0.4-1.1,0.8-1.9,1c-0.7,0.2-1.6,0.4-2.5,0.4
			L515.5,370.6L515.5,370.6z M515.5,369.3h4.5c0.8,0,1.5-0.1,2-0.3c0.6-0.2,1.1-0.5,1.4-0.8c0.3-0.3,0.6-0.7,0.8-1.2
			c0.2-0.5,0.2-1,0.2-1.5s-0.1-1.1-0.2-1.5c-0.2-0.5-0.4-0.9-0.8-1.3c-0.4-0.4-0.8-0.7-1.4-0.9c-0.6-0.2-1.2-0.3-2-0.3h-4.5V369.3z"
			/>
		<path class="st2" d="M528.8,360.8c0-0.2,0.1-0.5,0.2-0.7c0.2-0.2,0.4-0.3,0.7-0.3c0.3,0,0.6,0.1,0.7,0.3c0.2,0.2,0.2,0.4,0.2,0.7
			c0,0.2-0.1,0.5-0.2,0.7c-0.2,0.2-0.4,0.2-0.7,0.2c-0.3,0-0.6-0.1-0.7-0.2C528.9,361.3,528.8,361.1,528.8,360.8z M530.5,377.7h-1.4
			v-13.1h1.4V377.7z"/>
		<path class="st2" d="M538.6,369.9l3.5-5.3h1.7l-4.5,6.4l4.6,6.7h-1.7l-3.7-5.5l-3.7,5.5h-1.7l4.6-6.7l-4.5-6.4h1.7L538.6,369.9z"
			/>
		<path class="st2" d="M551.3,377.9c-0.9,0-1.6-0.2-2.4-0.5c-0.7-0.3-1.4-0.7-1.9-1.3c-0.5-0.6-0.9-1.2-1.2-2
			c-0.3-0.8-0.4-1.6-0.4-2.6V371c0-1,0.1-1.9,0.4-2.7c0.3-0.8,0.7-1.5,1.2-2.1c0.6-0.6,1.1-1.1,1.8-1.4s1.4-0.5,2.1-0.5
			c0.8,0,1.5,0.1,2.2,0.4c0.7,0.3,1.2,0.7,1.6,1.2c0.4,0.5,0.7,1.2,1,1.9c0.2,0.7,0.3,1.5,0.3,2.4v0.9h-9.4v0.2c0,0.7,0.1,1.4,0.3,2
			c0.2,0.7,0.5,1.2,0.9,1.7c0.4,0.5,0.9,0.9,1.4,1.1c0.6,0.2,1.2,0.4,1.8,0.4c0.8,0,1.5-0.1,2-0.4s1.1-0.7,1.6-1.4l0.9,0.7
			c-0.2,0.3-0.5,0.6-0.7,0.9s-0.6,0.6-1,0.7c-0.4,0.2-0.8,0.4-1.3,0.5C552.3,377.8,551.9,377.9,551.3,377.9z M551.1,365.6
			c-0.6,0-1.1,0.1-1.5,0.3c-0.5,0.2-0.9,0.5-1.2,0.9c-0.4,0.4-0.7,0.9-0.9,1.4c-0.2,0.6-0.4,1.2-0.5,1.8h7.9v-0.2
			c0-0.6-0.1-1.1-0.2-1.6c-0.1-0.6-0.4-1-0.7-1.4c-0.3-0.4-0.7-0.7-1.2-0.9C552.2,365.7,551.7,365.6,551.1,365.6z"/>
		<path class="st2" d="M560.7,377.7h-1.4v-18.6h1.4V377.7z"/>
		<path class="st2" d="M572.4,370.6v7.2H571v-17.6h6c1,0,1.8,0.1,2.5,0.4s1.4,0.6,1.9,1.1c0.5,0.4,0.9,1,1.1,1.7
			c0.2,0.7,0.4,1.4,0.4,2.1c0,0.8-0.1,1.5-0.4,2.2c-0.2,0.6-0.6,1.2-1.1,1.6c-0.5,0.4-1.1,0.8-1.9,1c-0.7,0.2-1.6,0.4-2.5,0.4
			L572.4,370.6L572.4,370.6z M572.4,369.3h4.5c0.8,0,1.5-0.1,2-0.3c0.6-0.2,1.1-0.5,1.4-0.8c0.3-0.3,0.6-0.7,0.8-1.2
			c0.2-0.5,0.2-1,0.2-1.5s-0.1-1.1-0.2-1.5c-0.2-0.5-0.4-0.9-0.8-1.3c-0.4-0.4-0.8-0.7-1.4-0.9c-0.6-0.2-1.2-0.3-2-0.3h-4.5V369.3z"
			/>
		<path class="st2" d="M594.3,376.1c-0.4,0.6-0.9,1.1-1.6,1.4s-1.5,0.5-2.5,0.5c-0.6,0-1.2-0.1-1.7-0.2c-0.5-0.2-1-0.5-1.4-0.9
			c-0.4-0.4-0.7-0.9-0.9-1.5c-0.2-0.6-0.3-1.4-0.3-2.3v-8.4h1.4v8.4c0,0.7,0.1,1.3,0.2,1.7c0.2,0.4,0.4,0.9,0.7,1.1
			c0.3,0.2,0.6,0.5,1,0.6s0.7,0.2,1.2,0.2c0.6,0,1.1-0.1,1.5-0.2c0.4-0.1,0.8-0.3,1.2-0.6c0.4-0.2,0.6-0.5,0.8-0.8s0.4-0.7,0.5-1.1
			v-9.5h1.4v13.1h-1.5V376.1z"/>
		<path class="st2" d="M607.3,374.4c0-0.2-0.1-0.6-0.1-0.8c-0.1-0.2-0.2-0.5-0.5-0.7s-0.6-0.4-1.1-0.7c-0.4-0.2-1.1-0.4-1.8-0.6
			s-1.4-0.3-1.9-0.6s-1.1-0.4-1.4-0.7s-0.7-0.6-0.9-1.1c-0.2-0.4-0.3-0.9-0.3-1.4c0-0.5,0.1-0.9,0.3-1.4s0.5-0.8,0.9-1.1
			s0.9-0.6,1.4-0.7c0.6-0.2,1.2-0.3,1.9-0.3c0.7,0,1.4,0.1,2,0.3c0.6,0.2,1.1,0.5,1.5,0.8s0.7,0.7,0.9,1.2c0.2,0.5,0.3,1,0.3,1.5
			h-1.4c0-0.3-0.1-0.7-0.2-1c-0.2-0.3-0.4-0.6-0.7-0.9c-0.3-0.2-0.6-0.4-1.1-0.6s-0.9-0.2-1.4-0.2c-0.6,0-1.1,0.1-1.4,0.2
			c-0.4,0.1-0.7,0.3-1,0.6c-0.2,0.2-0.4,0.4-0.6,0.7c-0.1,0.3-0.2,0.6-0.2,0.8c0,0.3,0.1,0.6,0.1,0.8c0.1,0.2,0.2,0.4,0.5,0.7
			s0.6,0.4,1.1,0.6s1.1,0.4,1.8,0.5c0.8,0.2,1.5,0.4,2,0.6c0.6,0.2,1.1,0.5,1.4,0.8s0.7,0.7,0.8,1.1c0.1,0.4,0.2,0.9,0.2,1.4
			c0,0.6-0.1,1.1-0.3,1.5c-0.2,0.4-0.6,0.8-1,1.2c-0.4,0.4-0.9,0.6-1.5,0.7c-0.6,0.2-1.2,0.2-2,0.2c-0.8,0-1.5-0.1-2.2-0.3
			c-0.7-0.2-1.2-0.5-1.6-0.9c-0.4-0.4-0.7-0.8-1-1.2c-0.2-0.4-0.3-1-0.3-1.5h1.4c0.1,0.5,0.2,0.9,0.4,1.3s0.5,0.6,0.9,0.8
			c0.4,0.2,0.7,0.4,1.2,0.4c0.4,0.1,0.9,0.1,1.2,0.1c0.6,0,1.1-0.1,1.4-0.2c0.4-0.1,0.7-0.3,1.1-0.5c0.3-0.2,0.5-0.5,0.6-0.7
			C607.1,375,607.3,374.7,607.3,374.4z"/>
		<path class="st2" d="M613.5,366.8c0.2-0.4,0.5-0.7,0.8-1c0.3-0.3,0.6-0.6,1-0.8s0.7-0.4,1.2-0.5c0.4-0.1,0.9-0.2,1.3-0.2
			c0.7,0,1.2,0.1,1.7,0.2c0.5,0.2,0.9,0.4,1.3,0.9s0.6,0.9,0.8,1.5s0.3,1.4,0.3,2.2v8.5h-1.4v-8.5c0-0.7-0.1-1.2-0.2-1.7
			c-0.2-0.4-0.4-0.8-0.6-1.1s-0.6-0.5-1-0.6c-0.4-0.1-0.8-0.2-1.3-0.2c-0.5,0-1,0.1-1.4,0.2s-0.8,0.4-1.1,0.7
			c-0.3,0.2-0.6,0.6-0.8,1c-0.2,0.4-0.4,0.7-0.6,1.2v9H612v-18.6h1.4L613.5,366.8L613.5,366.8z"/>
		<path class="st2" d="M630.7,377.9c-0.9,0-1.6-0.2-2.4-0.5c-0.7-0.3-1.4-0.7-1.9-1.3s-0.9-1.2-1.2-2c-0.3-0.8-0.4-1.6-0.4-2.6V371
			c0-1,0.1-1.9,0.4-2.7c0.3-0.8,0.7-1.5,1.2-2.1c0.6-0.6,1.1-1.1,1.8-1.4s1.4-0.5,2.1-0.5c0.8,0,1.5,0.1,2.2,0.4
			c0.7,0.3,1.2,0.7,1.6,1.2c0.4,0.5,0.7,1.2,1,1.9c0.2,0.7,0.3,1.5,0.3,2.4v0.9h-9.4v0.2c0,0.7,0.1,1.4,0.3,2
			c0.2,0.7,0.5,1.2,0.9,1.7c0.4,0.5,0.9,0.9,1.4,1.1s1.2,0.4,1.8,0.4c0.8,0,1.5-0.1,2-0.4c0.6-0.3,1.1-0.7,1.6-1.4l0.9,0.7
			c-0.2,0.3-0.5,0.6-0.7,0.9s-0.6,0.6-1,0.7c-0.4,0.2-0.8,0.4-1.3,0.5C631.7,377.8,631.3,377.9,630.7,377.9z M630.4,365.6
			c-0.6,0-1.1,0.1-1.5,0.3s-0.9,0.5-1.2,0.9c-0.4,0.4-0.7,0.9-0.9,1.4c-0.2,0.6-0.4,1.2-0.5,1.8h7.9v-0.2c0-0.6-0.1-1.1-0.2-1.6
			c-0.1-0.6-0.4-1-0.7-1.4c-0.3-0.4-0.7-0.7-1.2-0.9C631.5,365.7,631,365.6,630.4,365.6z"/>
		<path class="st2" d="M644.5,365.9c-0.3-0.1-0.6-0.1-1-0.1c-0.5,0-0.9,0.1-1.3,0.2c-0.4,0.2-0.7,0.4-1.1,0.6
			c-0.3,0.2-0.6,0.6-0.7,0.9s-0.4,0.7-0.5,1.2v9h-1.4v-13.1h1.4v2.1c0.4-0.7,0.9-1.3,1.4-1.7c0.6-0.4,1.4-0.6,2.2-0.6
			c0.2,0,0.4,0,0.6,0.1c0.2,0.1,0.3,0.1,0.4,0.1L644.5,365.9z"/>
	</g>
	<line class="st3" x1="323.2" y1="369.7" x2="662" y2="369.7"/>
	<g>
		<path d="M413.3,394.7v7.2h-1.5v-17.6h6c1,0,1.8,0.1,2.5,0.4c0.7,0.2,1.4,0.6,1.9,1.1c0.5,0.4,0.9,1,1.1,1.7s0.4,1.4,0.4,2.1
			c0,0.8-0.1,1.5-0.4,2.2s-0.6,1.2-1.1,1.6c-0.5,0.4-1.1,0.8-1.9,1c-0.7,0.2-1.6,0.4-2.5,0.4L413.3,394.7L413.3,394.7z M413.3,393.5
			h4.5c0.8,0,1.5-0.1,2-0.3c0.6-0.2,1.1-0.5,1.4-0.8c0.4-0.4,0.6-0.7,0.8-1.2c0.2-0.5,0.2-1,0.2-1.5c0-0.6-0.1-1.1-0.2-1.5
			c-0.2-0.5-0.4-0.9-0.8-1.3c-0.4-0.4-0.8-0.7-1.4-0.9c-0.6-0.2-1.2-0.3-2-0.3h-4.5V393.5z"/>
		<path d="M432.7,390.1c-0.3-0.1-0.6-0.1-1-0.1c-0.5,0-0.9,0.1-1.3,0.2c-0.4,0.1-0.7,0.4-1.1,0.6s-0.6,0.6-0.7,0.9
			c-0.2,0.4-0.4,0.7-0.5,1.2v9h-1.4v-13.1h1.4v2.1c0.4-0.7,0.9-1.3,1.4-1.7c0.6-0.4,1.4-0.6,2.2-0.6c0.2,0,0.4,0,0.6,0.1
			c0.2,0.1,0.3,0.1,0.4,0.1L432.7,390.1z"/>
		<path d="M434,395.1c0-0.9,0.1-1.9,0.4-2.7c0.3-0.8,0.7-1.5,1.2-2.1c0.5-0.6,1.1-1.1,1.9-1.4c0.7-0.3,1.5-0.5,2.4-0.5
			c0.9,0,1.7,0.2,2.4,0.5c0.7,0.3,1.4,0.8,1.9,1.4s0.9,1.3,1.2,2.1c0.2,0.8,0.4,1.7,0.4,2.7v0.4c0,0.9-0.1,1.9-0.4,2.7
			s-0.7,1.5-1.2,2.1c-0.5,0.6-1.1,1.1-1.9,1.4c-0.7,0.3-1.5,0.5-2.4,0.5s-1.7-0.2-2.4-0.5s-1.4-0.8-1.9-1.4
			c-0.5-0.6-0.9-1.3-1.2-2.1c-0.2-0.8-0.4-1.7-0.4-2.7V395.1z M435.4,395.6c0,0.7,0.1,1.4,0.3,2c0.2,0.6,0.5,1.2,0.9,1.7
			s0.8,0.9,1.4,1.2c0.6,0.3,1.2,0.4,1.9,0.4c0.7,0,1.4-0.1,1.9-0.4s1-0.7,1.4-1.2c0.4-0.5,0.7-1.1,0.9-1.7c0.2-0.7,0.3-1.4,0.3-2
			v-0.4c0-0.7-0.1-1.4-0.3-2c-0.2-0.7-0.5-1.2-0.9-1.7c-0.4-0.5-0.8-0.9-1.4-1.2s-1.2-0.4-1.9-0.4c-0.7,0-1.3,0.1-1.9,0.4
			s-1,0.7-1.4,1.2c-0.4,0.5-0.7,1.1-0.9,1.7s-0.3,1.3-0.3,2L435.4,395.6L435.4,395.6z"/>
		<path d="M459.2,395.5c0,1-0.1,1.9-0.3,2.7c-0.2,0.9-0.6,1.5-1,2.1c-0.4,0.6-0.9,1.1-1.5,1.4s-1.3,0.5-2.1,0.5
			c-0.9,0-1.8-0.2-2.5-0.6c-0.7-0.4-1.2-0.9-1.7-1.5l-0.1,1.8h-1.4v-18.6h1.4v7.4c0.4-0.7,1-1.2,1.7-1.5s1.5-0.6,2.4-0.6
			c0.8,0,1.5,0.2,2.1,0.5c0.6,0.3,1.2,0.7,1.5,1.4c0.4,0.6,0.7,1.3,1,2.1c0.2,0.8,0.3,1.7,0.3,2.7L459.2,395.5L459.2,395.5z
			 M457.7,395.2c0-0.7-0.1-1.5-0.2-2.1c-0.2-0.6-0.4-1.2-0.7-1.7c-0.3-0.5-0.7-0.9-1.2-1.1c-0.5-0.2-1.1-0.4-1.7-0.4
			c-0.6,0-1.1,0.1-1.4,0.2c-0.4,0.2-0.8,0.4-1.1,0.6s-0.6,0.6-0.8,0.9c-0.2,0.3-0.4,0.7-0.5,1v5.9c0.1,0.4,0.4,0.7,0.6,1
			s0.5,0.6,0.8,0.8c0.3,0.2,0.7,0.4,1.1,0.5c0.4,0.1,0.9,0.2,1.4,0.2c0.7,0,1.2-0.1,1.7-0.4c0.4-0.3,0.9-0.7,1.2-1.1
			s0.6-1.1,0.7-1.7c0.1-0.7,0.2-1.4,0.2-2.1v-0.3H457.7z"/>
		<path d="M464,401.9h-1.4v-18.6h1.4V401.9z"/>
		<path d="M473,402.1c-0.9,0-1.6-0.2-2.4-0.5s-1.4-0.7-1.9-1.3c-0.5-0.6-0.9-1.2-1.2-2c-0.3-0.8-0.4-1.6-0.4-2.6v-0.5
			c0-1,0.1-1.9,0.4-2.7c0.3-0.8,0.7-1.5,1.2-2.1c0.6-0.6,1.1-1.1,1.8-1.4c0.7-0.3,1.4-0.5,2.1-0.5c0.8,0,1.5,0.1,2.2,0.4
			c0.7,0.3,1.2,0.7,1.6,1.2c0.4,0.5,0.7,1.2,1,1.9c0.2,0.7,0.3,1.5,0.3,2.4v0.9h-9.4v0.2c0,0.7,0.1,1.4,0.3,2
			c0.2,0.7,0.5,1.2,0.9,1.7c0.4,0.5,0.9,0.9,1.4,1.1c0.6,0.2,1.2,0.4,1.8,0.4c0.8,0,1.5-0.1,2-0.4c0.6-0.3,1.1-0.7,1.6-1.4l0.9,0.7
			c-0.2,0.3-0.5,0.6-0.7,0.9s-0.6,0.6-1,0.7c-0.4,0.2-0.8,0.4-1.3,0.5C474,402,473.6,402.1,473,402.1z M472.7,389.8
			c-0.6,0-1.1,0.1-1.5,0.3c-0.5,0.2-0.9,0.5-1.2,0.9c-0.4,0.4-0.7,0.9-0.9,1.4c-0.2,0.6-0.4,1.2-0.5,1.8h7.9V394
			c0-0.6-0.1-1.1-0.2-1.6c-0.1-0.6-0.4-1-0.7-1.4c-0.3-0.4-0.7-0.7-1.2-0.9C473.8,389.9,473.3,389.8,472.7,389.8z"/>
		<path d="M482.1,388.8l0.1,2.1c0.2-0.4,0.5-0.7,0.7-1s0.6-0.6,1-0.7c0.4-0.2,0.7-0.4,1.2-0.5c0.4-0.1,0.9-0.2,1.4-0.2
			c0.9,0,1.8,0.2,2.5,0.6c0.7,0.4,1.2,1.1,1.5,1.9c0.2-0.4,0.4-0.7,0.7-1s0.6-0.6,1-0.8c0.4-0.2,0.8-0.4,1.2-0.6
			c0.4-0.1,0.9-0.2,1.5-0.2c0.7,0,1.3,0.1,1.8,0.2c0.5,0.2,1,0.5,1.4,0.9s0.6,0.9,0.9,1.5s0.3,1.3,0.3,2.2v8.5h-1.4v-8.5
			c0-0.7-0.1-1.2-0.2-1.7c-0.2-0.5-0.4-0.8-0.7-1.1c-0.3-0.3-0.6-0.4-1-0.6c-0.4-0.1-0.8-0.2-1.3-0.2c-0.6,0-1.2,0.1-1.6,0.3
			s-0.9,0.5-1.2,0.8c-0.3,0.3-0.6,0.7-0.7,1.1c-0.2,0.4-0.3,0.8-0.3,1.2v8.7h-1.4v-8.7c0-0.7-0.1-1.2-0.2-1.6
			c-0.2-0.4-0.4-0.8-0.7-1.1s-0.6-0.4-1-0.6c-0.4-0.1-0.8-0.2-1.3-0.2c-0.6,0-1.1,0.1-1.4,0.2c-0.4,0.2-0.8,0.4-1.1,0.7
			s-0.6,0.6-0.7,1c-0.2,0.4-0.4,0.7-0.5,1.2v9h-1.4v-13.1L482.1,388.8L482.1,388.8z"/>
		<path d="M519,397.6c0-0.5-0.1-0.9-0.2-1.3c-0.2-0.4-0.4-0.7-0.8-1.1c-0.4-0.3-0.9-0.6-1.5-0.9c-0.6-0.2-1.4-0.5-2.3-0.8
			c-0.9-0.2-1.7-0.5-2.4-0.8c-0.7-0.3-1.3-0.6-1.8-1.1c-0.5-0.4-0.9-0.9-1.2-1.4s-0.4-1.1-0.4-1.8c0-0.7,0.1-1.3,0.4-1.9
			s0.7-1.1,1.2-1.4s1.2-0.7,1.9-0.9c0.7-0.2,1.5-0.3,2.4-0.3c0.9,0,1.7,0.1,2.5,0.4c0.7,0.2,1.4,0.6,1.9,1.1
			c0.5,0.5,0.9,1.1,1.2,1.7c0.3,0.6,0.4,1.3,0.4,2h-1.5c0-0.6-0.1-1.1-0.3-1.6c-0.2-0.5-0.5-0.9-0.9-1.2c-0.4-0.3-0.9-0.6-1.4-0.8
			c-0.6-0.2-1.2-0.3-1.9-0.3c-0.7,0-1.4,0.1-1.9,0.2c-0.6,0.2-1,0.4-1.4,0.7s-0.6,0.6-0.8,1.1c-0.2,0.4-0.3,0.8-0.3,1.2
			s0.1,0.8,0.2,1.2s0.4,0.7,0.8,1c0.4,0.3,0.9,0.6,1.5,0.9c0.6,0.3,1.4,0.5,2.2,0.7c0.9,0.2,1.7,0.6,2.5,0.9
			c0.7,0.3,1.4,0.7,1.9,1.1c0.5,0.4,0.9,0.9,1.1,1.4c0.2,0.6,0.4,1.2,0.4,1.9c0,0.7-0.1,1.4-0.4,1.9c-0.3,0.6-0.7,1.1-1.2,1.4
			c-0.5,0.4-1.2,0.7-1.9,0.9c-0.7,0.2-1.5,0.3-2.4,0.3c-0.5,0-1.1-0.1-1.5-0.1c-0.5-0.1-1.1-0.2-1.5-0.4c-0.5-0.2-0.9-0.4-1.4-0.7
			c-0.4-0.2-0.8-0.6-1.1-1c-0.3-0.4-0.6-0.9-0.7-1.4c-0.2-0.5-0.2-1.1-0.2-1.7h1.5c0,0.7,0.1,1.4,0.4,1.9s0.7,0.9,1.2,1.2
			c0.5,0.3,1.1,0.6,1.6,0.7s1.2,0.2,1.8,0.2c0.7,0,1.3-0.1,1.9-0.2c0.6-0.2,1.1-0.4,1.4-0.7c0.4-0.3,0.7-0.6,0.9-1.1
			C519,398.4,519,398.1,519,397.6z"/>
		<path d="M522.6,395.1c0-0.9,0.1-1.9,0.4-2.7c0.3-0.8,0.7-1.5,1.2-2.1s1.1-1.1,1.9-1.4c0.7-0.3,1.5-0.5,2.4-0.5
			c0.9,0,1.7,0.2,2.4,0.5s1.4,0.8,1.9,1.4s0.9,1.3,1.2,2.1c0.2,0.8,0.4,1.7,0.4,2.7v0.4c0,0.9-0.1,1.9-0.4,2.7
			c-0.3,0.8-0.7,1.5-1.2,2.1c-0.5,0.6-1.1,1.1-1.9,1.4c-0.7,0.3-1.5,0.5-2.4,0.5s-1.7-0.2-2.4-0.5c-0.7-0.3-1.4-0.8-1.9-1.4
			c-0.5-0.6-0.9-1.3-1.2-2.1s-0.4-1.7-0.4-2.7V395.1z M524,395.6c0,0.7,0.1,1.4,0.3,2c0.2,0.6,0.5,1.2,0.9,1.7
			c0.4,0.5,0.8,0.9,1.4,1.2c0.6,0.3,1.2,0.4,1.9,0.4c0.7,0,1.4-0.1,1.9-0.4c0.5-0.3,1-0.7,1.4-1.2c0.4-0.5,0.7-1.1,0.9-1.7
			c0.2-0.7,0.3-1.4,0.3-2v-0.4c0-0.7-0.1-1.4-0.3-2s-0.5-1.2-0.9-1.7c-0.4-0.5-0.8-0.9-1.4-1.2c-0.6-0.3-1.2-0.4-1.9-0.4
			c-0.7,0-1.3,0.1-1.9,0.4c-0.6,0.3-1,0.7-1.4,1.2c-0.4,0.5-0.7,1.1-0.9,1.7c-0.2,0.7-0.3,1.3-0.3,2L524,395.6L524,395.6z"/>
		<path d="M538.8,401.9h-1.4v-18.6h1.4V401.9z"/>
		<path d="M546.9,399.9l4-11.1h1.5l-4.9,13.1h-1.2l-4.9-13.1h1.5L546.9,399.9z"/>
		<path d="M559.6,402.1c-0.9,0-1.6-0.2-2.4-0.5c-0.7-0.3-1.4-0.7-1.9-1.3c-0.5-0.6-0.9-1.2-1.2-2c-0.3-0.8-0.4-1.6-0.4-2.6v-0.5
			c0-1,0.1-1.9,0.4-2.7c0.3-0.8,0.7-1.5,1.2-2.1c0.6-0.6,1.1-1.1,1.8-1.4s1.4-0.5,2.1-0.5c0.8,0,1.5,0.1,2.2,0.4s1.2,0.7,1.6,1.2
			c0.4,0.5,0.7,1.2,1,1.9c0.2,0.7,0.3,1.5,0.3,2.4v0.9h-9.4v0.2c0,0.7,0.1,1.4,0.3,2c0.2,0.7,0.5,1.2,0.9,1.7
			c0.4,0.5,0.9,0.9,1.4,1.1c0.6,0.2,1.2,0.4,1.8,0.4c0.8,0,1.5-0.1,2-0.4c0.6-0.3,1.1-0.7,1.6-1.4l0.9,0.7c-0.2,0.3-0.5,0.6-0.7,0.9
			s-0.6,0.6-1,0.7c-0.4,0.2-0.8,0.4-1.3,0.5C560.6,402,560.2,402.1,559.6,402.1z M559.3,389.8c-0.6,0-1.1,0.1-1.5,0.3
			c-0.5,0.2-0.9,0.5-1.2,0.9c-0.4,0.4-0.7,0.9-0.9,1.4c-0.2,0.6-0.4,1.2-0.5,1.8h7.9V394c0-0.6-0.1-1.1-0.2-1.6
			c-0.1-0.6-0.4-1-0.7-1.4c-0.3-0.4-0.7-0.7-1.2-0.9C560.5,389.9,560,389.8,559.3,389.8z"/>
		<path d="M573.4,390.1c-0.3-0.1-0.6-0.1-1-0.1c-0.5,0-0.9,0.1-1.3,0.2c-0.4,0.2-0.7,0.4-1.1,0.6c-0.3,0.2-0.6,0.6-0.7,0.9
			c-0.2,0.4-0.4,0.7-0.5,1.2v9h-1.4v-13.1h1.4v2.1c0.4-0.7,0.9-1.3,1.4-1.7c0.6-0.4,1.4-0.6,2.2-0.6c0.2,0,0.4,0,0.6,0.1
			c0.2,0.1,0.3,0.1,0.4,0.1L573.4,390.1z"/>
	</g>
</g>
<g id="Layer_2" class="st4">
</g>
</svg>
