<?xml version="1.0" encoding="utf-8"?>
<!-- Generator: Adobe Illustrator 19.2.1, SVG Export Plug-In . SVG Version: 6.00 Build 0)  -->
<!DOCTYPE svg PUBLIC "-//W3C//DTD SVG 1.1//EN" "http://www.w3.org/Graphics/SVG/1.1/DTD/svg11.dtd">
<svg version="1.1" id="Layer_1" xmlns="http://www.w3.org/2000/svg" xmlns:xlink="http://www.w3.org/1999/xlink" x="0px" y="0px"
	 viewBox="0 0 984 691.5" style="enable-background:new 0 0 984 691.5;" xml:space="preserve">
<style type="text/css">
	.st0{fill:#FFFFFF;}
	.st1{fill:#787878;}
	.st2{stroke:#000000;stroke-width:2;stroke-miterlimit:10;}
</style>
<g>
	
		<image style="overflow:visible;opacity:0.34;enable-background:new    ;" width="1043" height="787" xlink:href="18B3F884.png"  transform="matrix(1 0 0 1 -26.6154 -55.606)">
	</image>
	<g>
		<path class="st0" d="M1002.9,717.7h-1024v-768h1024V717.7z M416.2,118.2l2.3-17.6h-49.4v85.7h48.8v-17.7h-26.6v-17.2h21.8v-17.1
			h-21.8v-16L416.2,118.2L416.2,118.2z M467.4,186.3l19-85.7h-22.8l-10.3,68.1l-11.4-68.1h-23.4l20.2,85.7L467.4,186.3L467.4,186.3z
			 M520.5,169.7l2.9,16.6H547l-21.8-85.7h-26.6l-21.9,85.7h23.2l2.8-16.6H520.5z M517.4,152h-11.6l5.7-33.6L517.4,152z M610.5,186.3
			v-85.7h-19.7v27.5c0,15.5,1.6,25.4,3,35.3l-17.1-62.8h-27.3v85.7h19.7v-26.6c0-15.9-1.8-27.7-2.9-36l16.4,62.5h27.9V186.3z
			 M306.9,207.6h-27.1v85.7H302v-26.7h7.3c17.8,0,30.1-10.1,30.1-30.2C339.5,217.2,327.1,207.6,306.9,207.6z M307.2,248.8H302v-23.5
			h4.5c7.3,0,10.3,4.2,10.3,11.2C316.8,244.8,313.5,248.8,307.2,248.8z M393.4,225.2l2.3-17.6h-49.4v85.7h48.8v-17.7h-26.6v-17.2
			h21.8v-17.1h-21.8v-16L393.4,225.2L393.4,225.2z M427.1,207.6H403v85.7h25.4c21,0,38.7-9,38.7-43.2
			C467,214.9,447.7,207.6,427.1,207.6z M425.2,225.5h4.5c9.5,0,14.4,5.2,14.4,24.6c0,19.5-4.4,25.4-14.5,25.4h-4.4V225.5z
			 M500.7,262.8l13.9,30.5h24.6l-18.4-35.2c9.2-6,13.3-12.4,13.3-23.3c0-18.8-10.8-27.2-32.3-27.2h-27.5v85.7h22.2v-30.5H500.7z
			 M496.6,245.8V225h4.8c6.6,0,10.2,3.1,10.2,9.8c0,7.5-3,11-9.1,11H496.6z M564.6,293.3v-85.7h-22.2v85.7H564.6z M607.3,205.2
			c-20.7,0-35.4,16.5-35.4,45.1c0,29.7,14.1,45.6,36.1,45.6c10.6,0,19.3-5.7,24.8-11.9l-9.7-14.3c-4.4,3.9-8.5,7.1-13.8,7.1
			c-9,0-14.3-8.4-14.3-26.5s5.2-26.8,13.6-26.8c5.2,0,9.2,2.3,12.7,6l10.6-14.2C625.6,209,617.8,205.2,607.3,205.2z M660.2,293.3
			v-85.7H638v85.7H660.2z M683.5,245.7l21.3-38h-22.9l-21,40l20.5,45.7h25.3L683.5,245.7z"/>
	</g>
</g>
<g>
	<path class="st1" d="M256,342.1l0.9,4.4l1.1-4.2l6.2-21h2.2l6.1,21l1.1,4.3l0.9-4.5l5.1-20.8h2.5l-7.3,28.4h-2.3l-6.4-22.2
		l-0.7-2.8l-0.7,2.8l-6.6,22.2h-2.3l-7.3-28.4h2.5L256,342.1z"/>
	<path class="st1" d="M293.6,350.1c-1.4,0-2.6-0.3-3.8-0.8s-2.2-1.2-3-2.1s-1.5-2-2-3.3s-0.7-2.6-0.7-4.2v-0.8
		c0-1.6,0.2-3.1,0.7-4.4s1.1-2.4,2-3.4s1.8-1.7,2.9-2.2s2.2-0.8,3.4-0.8c1.3,0,2.5,0.2,3.6,0.7s1.9,1.2,2.6,2s1.2,1.9,1.6,3.1
		s0.5,2.5,0.5,3.9v1.4h-15.1v0.4c0,1.2,0.2,2.2,0.5,3.3s0.8,1.9,1.5,2.7s1.4,1.4,2.3,1.8s1.9,0.7,2.9,0.7c1.3,0,2.4-0.2,3.3-0.7
		s1.8-1.2,2.6-2.2l1.5,1.1c-0.4,0.5-0.8,1-1.2,1.4s-1,0.9-1.6,1.2s-1.3,0.6-2.1,0.8S294.6,350.1,293.6,350.1z M293.2,330.2
		c-0.9,0-1.7,0.2-2.5,0.5s-1.4,0.8-2,1.4s-1.1,1.4-1.4,2.3s-0.6,1.9-0.8,2.9h12.7V337c0-0.9-0.2-1.7-0.4-2.6s-0.6-1.6-1.1-2.2
		s-1.1-1.1-1.9-1.5S294.2,330.2,293.2,330.2z"/>
	<path class="st1" d="M323.1,339.4c0,1.6-0.2,3-0.5,4.4s-0.9,2.4-1.6,3.4s-1.5,1.7-2.5,2.2s-2.1,0.8-3.4,0.8c-1.5,0-2.9-0.3-4-0.9
		s-2-1.4-2.7-2.4l-0.1,2.9h-2.2v-30h2.3v11.9c0.7-1.1,1.6-1.9,2.7-2.5s2.4-0.9,3.9-0.9c1.3,0,2.4,0.3,3.4,0.8s1.9,1.2,2.5,2.2
		s1.2,2.1,1.6,3.4s0.5,2.8,0.5,4.4v0.3H323.1z M320.7,339c0-1.2-0.1-2.4-0.4-3.4s-0.6-2-1.1-2.8s-1.1-1.4-1.9-1.8s-1.7-0.7-2.8-0.7
		c-0.9,0-1.7,0.1-2.3,0.4s-1.3,0.6-1.8,1s-0.9,0.9-1.3,1.4s-0.6,1.1-0.8,1.6v9.5c0.2,0.6,0.6,1.1,0.9,1.6s0.8,0.9,1.3,1.3
		s1.1,0.6,1.7,0.8s1.4,0.3,2.2,0.3c1.1,0,2-0.2,2.7-0.7s1.4-1.1,1.9-1.8s0.9-1.7,1.1-2.8s0.4-2.2,0.4-3.4V339H320.7z"/>
	<path class="st1" d="M338.5,349.7v-28.4h7.9c1.8,0,3.4,0.3,4.9,0.9s2.8,1.5,3.8,2.6s1.9,2.5,2.5,4.1s0.9,3.4,0.9,5.3v2.6
		c0,2-0.3,3.7-0.9,5.3s-1.4,2.9-2.5,4.1s-2.4,2-3.9,2.6s-3.2,0.9-5,0.9H338.5z M340.9,323.3v24.4h5.4c1.5,0,2.9-0.3,4.1-0.8
		s2.3-1.3,3.1-2.2s1.5-2.1,2-3.4s0.7-2.8,0.7-4.4v-2.7c0-1.6-0.2-3.1-0.7-4.5s-1.1-2.5-2-3.4s-1.9-1.7-3.1-2.2s-2.5-0.8-4-0.8H340.9
		z"/>
	<path class="st1" d="M372.4,350.1c-1.4,0-2.6-0.3-3.8-0.8s-2.2-1.2-3-2.1s-1.5-2-2-3.3s-0.7-2.6-0.7-4.2v-0.8
		c0-1.6,0.2-3.1,0.7-4.4s1.1-2.4,2-3.4s1.8-1.7,2.9-2.2s2.2-0.8,3.4-0.8c1.3,0,2.5,0.2,3.6,0.7s1.9,1.2,2.6,2s1.2,1.9,1.6,3.1
		s0.5,2.5,0.5,3.9v1.4h-15.1v0.4c0,1.2,0.2,2.2,0.5,3.3s0.8,1.9,1.5,2.7s1.4,1.4,2.3,1.8s1.9,0.7,2.9,0.7c1.3,0,2.4-0.2,3.3-0.7
		s1.8-1.2,2.6-2.2l1.5,1.1c-0.4,0.5-0.8,1-1.2,1.4s-1,0.9-1.6,1.2s-1.3,0.6-2.1,0.8S373.3,350.1,372.4,350.1z M371.9,330.2
		c-0.9,0-1.7,0.2-2.5,0.5s-1.4,0.8-2,1.4s-1.1,1.4-1.4,2.3s-0.6,1.9-0.8,2.9H378V337c0-0.9-0.2-1.7-0.4-2.6s-0.6-1.6-1.1-2.2
		s-1.1-1.1-1.9-1.5S372.9,330.2,371.9,330.2z"/>
	<path class="st1" d="M391.2,346.5l6.4-17.9h2.4l-7.9,21.1h-1.9l-7.9-21.1h2.4L391.2,346.5z"/>
	<path class="st1" d="M411.7,350.1c-1.4,0-2.6-0.3-3.8-0.8s-2.2-1.2-3-2.1s-1.5-2-2-3.3s-0.7-2.6-0.7-4.2v-0.8
		c0-1.6,0.2-3.1,0.7-4.4s1.1-2.4,2-3.4s1.8-1.7,2.9-2.2s2.2-0.8,3.4-0.8c1.3,0,2.5,0.2,3.6,0.7s1.9,1.2,2.6,2s1.2,1.9,1.6,3.1
		s0.5,2.5,0.5,3.9v1.4h-15.1v0.4c0,1.2,0.2,2.2,0.5,3.3s0.8,1.9,1.5,2.7s1.4,1.4,2.3,1.8s1.9,0.7,2.9,0.7c1.3,0,2.4-0.2,3.3-0.7
		s1.8-1.2,2.6-2.2l1.5,1.1c-0.4,0.5-0.8,1-1.2,1.4s-1,0.9-1.6,1.2s-1.3,0.6-2.1,0.8S412.7,350.1,411.7,350.1z M411.3,330.2
		c-0.9,0-1.7,0.2-2.5,0.5s-1.4,0.8-2,1.4s-1.1,1.4-1.4,2.3s-0.6,1.9-0.8,2.9h12.7V337c0-0.9-0.2-1.7-0.4-2.6s-0.6-1.6-1.1-2.2
		s-1.1-1.1-1.9-1.5S412.3,330.2,411.3,330.2z"/>
	<path class="st1" d="M426.8,349.7h-2.3v-30h2.3V349.7z"/>
	<path class="st1" d="M431.9,338.9c0-1.5,0.2-3,0.7-4.3s1.1-2.4,1.9-3.4s1.8-1.7,3-2.2s2.4-0.8,3.9-0.8c1.4,0,2.8,0.3,3.9,0.8
		s2.2,1.3,3,2.2s1.5,2.1,1.9,3.4s0.7,2.7,0.7,4.3v0.6c0,1.5-0.2,3-0.7,4.3s-1.1,2.4-1.9,3.4s-1.8,1.7-3,2.2s-2.5,0.8-3.9,0.8
		s-2.7-0.3-3.9-0.8s-2.2-1.3-3-2.2s-1.5-2.1-1.9-3.4s-0.7-2.7-0.7-4.3V338.9z M434.2,339.5c0,1.2,0.2,2.3,0.5,3.3s0.8,2,1.4,2.8
		s1.3,1.4,2.2,1.9s1.9,0.7,3,0.7s2.2-0.2,3-0.7s1.6-1.1,2.2-1.9s1.1-1.7,1.4-2.8s0.5-2.2,0.5-3.3v-0.6c0-1.1-0.2-2.2-0.5-3.3
		s-0.8-2-1.4-2.8s-1.3-1.4-2.2-1.9s-1.9-0.7-3.1-0.7c-1.1,0-2.1,0.2-3,0.7s-1.6,1.1-2.2,1.9s-1.1,1.7-1.4,2.8s-0.5,2.1-0.5,3.3v0.6
		H434.2z"/>
	<path class="st1" d="M472.6,339.4c0,1.6-0.2,3-0.5,4.4s-0.9,2.4-1.6,3.4s-1.5,1.7-2.5,2.2s-2.1,0.8-3.4,0.8c-1.5,0-2.8-0.3-3.9-0.8
		s-2-1.3-2.7-2.2V358h-2.3v-29.3h2.2l0.1,3c0.7-1.1,1.6-1.9,2.7-2.5s2.4-0.9,3.9-0.9c1.3,0,2.4,0.3,3.4,0.8s1.9,1.2,2.5,2.2
		s1.2,2.1,1.6,3.4s0.5,2.8,0.5,4.4L472.6,339.4L472.6,339.4z M470.2,339c0-1.2-0.1-2.4-0.4-3.4s-0.6-2-1.2-2.8s-1.2-1.4-2-1.8
		s-1.7-0.7-2.8-0.7c-0.8,0-1.6,0.1-2.2,0.3s-1.2,0.5-1.7,0.9s-0.9,0.8-1.3,1.3s-0.6,1-0.8,1.5v10.1c0.2,0.5,0.6,1,0.9,1.5
		s0.8,0.8,1.3,1.2s1.1,0.6,1.7,0.8s1.4,0.3,2.1,0.3c1.1,0,2-0.2,2.8-0.7s1.4-1.1,1.9-1.9s0.9-1.7,1.2-2.8s0.4-2.2,0.4-3.5V339H470.2
		z"/>
	<path class="st1" d="M485.9,350.1c-1.4,0-2.6-0.3-3.8-0.8s-2.2-1.2-3-2.1s-1.5-2-2-3.3s-0.7-2.6-0.7-4.2v-0.8
		c0-1.6,0.2-3.1,0.7-4.4s1.1-2.4,2-3.4s1.8-1.7,2.9-2.2s2.2-0.8,3.4-0.8c1.3,0,2.5,0.2,3.6,0.7s1.9,1.2,2.6,2s1.2,1.9,1.6,3.1
		s0.5,2.5,0.5,3.9v1.4h-15.1v0.4c0,1.2,0.2,2.2,0.5,3.3s0.8,1.9,1.5,2.7s1.4,1.4,2.3,1.8s1.9,0.7,2.9,0.7c1.3,0,2.4-0.2,3.3-0.7
		s1.8-1.2,2.6-2.2l1.5,1.1c-0.4,0.5-0.8,1-1.2,1.4s-1,0.9-1.6,1.2s-1.3,0.6-2.1,0.8S486.9,350.1,485.9,350.1z M485.5,330.2
		c-0.9,0-1.7,0.2-2.5,0.5s-1.4,0.8-2,1.4s-1.1,1.4-1.4,2.3s-0.6,1.9-0.8,2.9h12.7V337c0-0.9-0.2-1.7-0.4-2.6s-0.6-1.6-1.1-2.2
		s-1.1-1.1-1.9-1.5S486.5,330.2,485.5,330.2z"/>
	<path class="st1" d="M508.2,330.6c-0.5-0.1-1-0.1-1.6-0.1c-0.8,0-1.5,0.1-2.1,0.4s-1.2,0.6-1.7,1s-0.9,0.9-1.2,1.5
		s-0.6,1.2-0.8,1.9v14.5h-2.3v-21.1h2.3v3.4c0.6-1.2,1.4-2.1,2.3-2.7s2.2-1,3.6-1c0.3,0,0.6,0,0.9,0.1s0.5,0.1,0.7,0.2L508.2,330.6z
		"/>
	<path class="st1" d="M511.6,352.2h-2.1l11.9-30.9h2.1L511.6,352.2z"/>
	<path class="st1" d="M530.7,338.2v11.6h-2.4v-28.4h9.7c1.6,0,2.9,0.2,4.1,0.6s2.2,1,3,1.7s1.4,1.6,1.8,2.7s0.6,2.2,0.6,3.4
		c0,1.3-0.2,2.5-0.6,3.5s-1,1.9-1.8,2.6s-1.8,1.3-3,1.6s-2.6,0.6-4.1,0.6L530.7,338.2L530.7,338.2z M530.7,336.1h7.3
		c1.3,0,2.4-0.2,3.3-0.5s1.7-0.8,2.2-1.3s1-1.2,1.3-2s0.4-1.6,0.4-2.5s-0.1-1.7-0.4-2.5s-0.7-1.5-1.3-2.1s-1.3-1.1-2.2-1.4
		s-2-0.5-3.3-0.5h-7.3V336.1z"/>
	<path class="st1" d="M552.3,322.5c0-0.4,0.1-0.8,0.4-1.1s0.7-0.5,1.2-0.5s0.9,0.2,1.2,0.5s0.4,0.7,0.4,1.1s-0.1,0.8-0.4,1.1
		s-0.7,0.4-1.2,0.4s-0.9-0.1-1.2-0.4S552.3,322.9,552.3,322.5z M555,349.7h-2.3v-21.1h2.3V349.7z"/>
	<path class="st1" d="M568,337.2l5.7-8.6h2.8l-7.2,10.4l7.5,10.8H574l-6-8.9l-6,8.9h-2.8l7.5-10.8l-7.2-10.4h2.8L568,337.2z"/>
	<path class="st1" d="M588.6,350.1c-1.4,0-2.6-0.3-3.8-0.8s-2.2-1.2-3-2.1s-1.5-2-2-3.3s-0.7-2.6-0.7-4.2v-0.8
		c0-1.6,0.2-3.1,0.7-4.4s1.1-2.4,2-3.4s1.8-1.7,2.9-2.2s2.2-0.8,3.4-0.8c1.3,0,2.5,0.2,3.6,0.7s1.9,1.2,2.6,2s1.2,1.9,1.6,3.1
		s0.5,2.5,0.5,3.9v1.4h-15.1v0.4c0,1.2,0.2,2.2,0.5,3.3s0.8,1.9,1.5,2.7s1.4,1.4,2.3,1.8s1.9,0.7,2.9,0.7c1.3,0,2.4-0.2,3.3-0.7
		s1.8-1.2,2.6-2.2l1.5,1.1c-0.4,0.5-0.8,1-1.2,1.4s-1,0.9-1.6,1.2s-1.3,0.6-2.1,0.8S589.6,350.1,588.6,350.1z M588.2,330.2
		c-0.9,0-1.7,0.2-2.5,0.5s-1.4,0.8-2,1.4s-1.1,1.4-1.4,2.3s-0.6,1.9-0.8,2.9h12.7V337c0-0.9-0.2-1.7-0.4-2.6s-0.6-1.6-1.1-2.2
		s-1.1-1.1-1.9-1.5S589.2,330.2,588.2,330.2z"/>
	<path class="st1" d="M603.7,349.7h-2.3v-30h2.3V349.7z"/>
	<path class="st1" d="M622.7,338.2v11.6h-2.4v-28.4h9.7c1.6,0,2.9,0.2,4.1,0.6s2.2,1,3,1.7s1.4,1.6,1.8,2.7s0.6,2.2,0.6,3.4
		c0,1.3-0.2,2.5-0.6,3.5s-1,1.9-1.8,2.6s-1.8,1.3-3,1.6s-2.6,0.6-4.1,0.6L622.7,338.2L622.7,338.2z M622.7,336.1h7.3
		c1.3,0,2.4-0.2,3.3-0.5s1.7-0.8,2.2-1.3s1-1.2,1.3-2s0.4-1.6,0.4-2.5s-0.1-1.7-0.4-2.5s-0.7-1.5-1.3-2.1s-1.3-1.1-2.2-1.4
		s-2-0.5-3.3-0.5h-7.3V336.1z"/>
	<path class="st1" d="M658,347.1c-0.7,1-1.5,1.7-2.6,2.3s-2.5,0.8-4.1,0.8c-1,0-2-0.1-2.8-0.4s-1.6-0.8-2.2-1.4s-1.1-1.5-1.4-2.5
		s-0.5-2.2-0.5-3.7v-13.5h2.3v13.6c0,1.1,0.1,2.1,0.4,2.8s0.6,1.4,1.1,1.8s1,0.8,1.6,1s1.2,0.3,1.9,0.3c0.9,0,1.8-0.1,2.5-0.3
		s1.3-0.5,1.9-0.9s1-0.8,1.3-1.3s0.6-1.1,0.8-1.7v-15.3h2.3v21.1H658V347.1z"/>
	<path class="st1" d="M679,344.4c0-0.4-0.1-0.9-0.2-1.3s-0.4-0.8-0.8-1.2s-1-0.7-1.7-1.1s-1.7-0.6-2.9-0.9s-2.2-0.5-3.1-0.9
		s-1.7-0.7-2.3-1.2s-1.1-1-1.4-1.7s-0.5-1.4-0.5-2.2c0-0.8,0.2-1.5,0.5-2.2s0.8-1.3,1.5-1.8s1.4-0.9,2.3-1.2s2-0.5,3.1-0.5
		c1.2,0,2.3,0.2,3.3,0.5s1.8,0.8,2.5,1.3s1.2,1.2,1.5,2s0.5,1.6,0.5,2.5H679c0-0.5-0.1-1.1-0.4-1.6s-0.6-1-1.1-1.4s-1-0.7-1.7-1
		s-1.5-0.4-2.3-0.4c-0.9,0-1.7,0.1-2.3,0.3s-1.2,0.5-1.6,0.9s-0.7,0.7-0.9,1.2s-0.3,0.9-0.3,1.3c0,0.5,0.1,0.9,0.2,1.3
		s0.4,0.7,0.8,1.1s1,0.6,1.7,0.9s1.7,0.6,2.9,0.8c1.3,0.3,2.4,0.6,3.3,1s1.7,0.8,2.3,1.3s1.1,1.1,1.3,1.7s0.4,1.4,0.4,2.2
		c0,0.9-0.2,1.7-0.5,2.4s-0.9,1.3-1.6,1.9s-1.5,0.9-2.5,1.2s-2,0.4-3.2,0.4c-1.3,0-2.5-0.2-3.6-0.5s-1.9-0.8-2.6-1.4s-1.2-1.3-1.6-2
		s-0.5-1.6-0.5-2.4h2.3c0.1,0.8,0.3,1.5,0.6,2.1s0.8,1,1.4,1.3s1.2,0.6,1.9,0.7s1.4,0.2,2,0.2c0.9,0,1.7-0.1,2.3-0.3
		s1.2-0.5,1.7-0.8s0.8-0.8,1-1.2S679,344.9,679,344.4z"/>
	<path class="st1" d="M689,332.2c0.4-0.6,0.8-1.1,1.3-1.6s1-0.9,1.6-1.3s1.2-0.6,1.9-0.8s1.4-0.3,2.1-0.3c1.1,0,2,0.1,2.8,0.4
		s1.5,0.7,2.1,1.4s1,1.4,1.3,2.4s0.5,2.2,0.5,3.6v13.8h-2.3V336c0-1.1-0.1-2-0.4-2.7s-0.6-1.3-1-1.8s-1-0.8-1.6-0.9
		s-1.3-0.3-2.1-0.3s-1.6,0.1-2.3,0.4s-1.3,0.7-1.8,1.1s-1,1-1.3,1.6s-0.7,1.2-0.9,1.9v14.5h-2.3v-30h2.3v12.4H689z"/>
	<path class="st1" d="M716.8,350.1c-1.4,0-2.6-0.3-3.8-0.8s-2.2-1.2-3-2.1s-1.5-2-2-3.3s-0.7-2.6-0.7-4.2v-0.8
		c0-1.6,0.2-3.1,0.7-4.4s1.1-2.4,2-3.4s1.8-1.7,2.9-2.2s2.2-0.8,3.4-0.8c1.3,0,2.5,0.2,3.6,0.7s1.9,1.2,2.6,2s1.2,1.9,1.6,3.1
		s0.5,2.5,0.5,3.9v1.4h-15.1v0.4c0,1.2,0.2,2.2,0.5,3.3s0.8,1.9,1.5,2.7s1.4,1.4,2.3,1.8s1.9,0.7,2.9,0.7c1.3,0,2.4-0.2,3.3-0.7
		s1.8-1.2,2.6-2.2l1.5,1.1c-0.4,0.5-0.8,1-1.2,1.4s-1,0.9-1.6,1.2s-1.3,0.6-2.1,0.8S717.7,350.1,716.8,350.1z M716.3,330.2
		c-0.9,0-1.7,0.2-2.5,0.5s-1.4,0.8-2,1.4s-1.1,1.4-1.4,2.3s-0.6,1.9-0.8,2.9h12.7V337c0-0.9-0.2-1.7-0.4-2.6s-0.6-1.6-1.1-2.2
		s-1.1-1.1-1.9-1.5S717.3,330.2,716.3,330.2z"/>
	<path class="st1" d="M739,330.6c-0.5-0.1-1-0.1-1.6-0.1c-0.8,0-1.5,0.1-2.1,0.4s-1.2,0.6-1.7,1s-0.9,0.9-1.2,1.5s-0.6,1.2-0.8,1.9
		v14.5h-2.3v-21.1h2.3v3.4c0.6-1.2,1.4-2.1,2.3-2.7s2.2-1,3.6-1c0.3,0,0.6,0,0.9,0.1s0.5,0.1,0.7,0.2L739,330.6z"/>
</g>
<line class="st2" x1="218" y1="336.8" x2="765" y2="336.8"/>
<g>
	<path d="M377,377.2v11.6h-2.4v-28.4h9.7c1.6,0,2.9,0.2,4.1,0.6c1.2,0.4,2.2,1,3,1.7c0.8,0.7,1.4,1.6,1.8,2.7s0.6,2.2,0.6,3.4
		c0,1.3-0.2,2.5-0.6,3.5s-1,1.9-1.8,2.6s-1.8,1.3-3,1.6c-1.2,0.4-2.6,0.6-4.1,0.6H377z M377,375.2h7.3c1.3,0,2.4-0.2,3.3-0.5
		c0.9-0.3,1.7-0.8,2.2-1.3c0.6-0.6,1-1.2,1.3-2s0.4-1.6,0.4-2.5c0-0.9-0.1-1.7-0.4-2.5s-0.7-1.5-1.3-2.1c-0.6-0.6-1.3-1.1-2.2-1.4
		c-0.9-0.3-2-0.5-3.3-0.5H377V375.2z"/>
	<path d="M408.4,369.7c-0.5-0.1-1-0.1-1.6-0.1c-0.8,0-1.5,0.1-2.1,0.4c-0.6,0.2-1.2,0.6-1.7,1s-0.9,0.9-1.2,1.5s-0.6,1.2-0.8,1.9
		v14.5h-2.3v-21.1h2.3l0,3.4c0.6-1.2,1.4-2.1,2.3-2.7c1-0.7,2.2-1,3.6-1c0.3,0,0.6,0,0.9,0.1c0.3,0.1,0.5,0.1,0.7,0.2L408.4,369.7z"
		/>
	<path d="M410.5,377.9c0-1.5,0.2-3,0.7-4.3s1.1-2.4,1.9-3.4s1.8-1.7,3-2.2s2.4-0.8,3.9-0.8c1.4,0,2.8,0.3,3.9,0.8s2.2,1.3,3,2.2
		s1.5,2.1,1.9,3.4s0.7,2.7,0.7,4.3v0.6c0,1.5-0.2,3-0.7,4.3s-1.1,2.4-1.9,3.4s-1.8,1.7-3,2.2s-2.5,0.8-3.9,0.8s-2.7-0.3-3.9-0.8
		s-2.2-1.3-3-2.2c-0.8-0.9-1.5-2.1-1.9-3.4s-0.7-2.7-0.7-4.3V377.9z M412.8,378.6c0,1.2,0.2,2.3,0.5,3.3s0.8,2,1.4,2.8
		c0.6,0.8,1.3,1.4,2.2,1.9s1.9,0.7,3,0.7s2.2-0.2,3-0.7s1.6-1.1,2.2-1.9s1.1-1.7,1.4-2.8s0.5-2.2,0.5-3.3v-0.6
		c0-1.1-0.2-2.2-0.5-3.3s-0.8-2-1.4-2.8s-1.3-1.4-2.2-1.9s-1.9-0.7-3.1-0.7c-1.1,0-2.1,0.2-3,0.7s-1.6,1.1-2.2,1.9
		c-0.6,0.8-1.1,1.7-1.4,2.8s-0.5,2.1-0.5,3.3V378.6z"/>
	<path d="M451.2,378.4c0,1.6-0.2,3-0.5,4.4s-0.9,2.4-1.6,3.4s-1.5,1.7-2.5,2.2s-2.1,0.8-3.4,0.8c-1.5,0-2.9-0.3-4-0.9
		s-2-1.4-2.7-2.4l-0.1,2.9h-2.2v-30h2.3v11.9c0.7-1.1,1.6-1.9,2.7-2.5s2.4-0.9,3.9-0.9c1.3,0,2.4,0.3,3.4,0.8s1.9,1.2,2.5,2.2
		s1.2,2.1,1.6,3.4s0.5,2.8,0.5,4.4V378.4z M448.8,378c0-1.2-0.1-2.4-0.4-3.4s-0.6-2-1.1-2.8s-1.1-1.4-1.9-1.8s-1.7-0.7-2.8-0.7
		c-0.9,0-1.7,0.1-2.3,0.4s-1.3,0.6-1.8,1s-0.9,0.9-1.3,1.4s-0.6,1.1-0.8,1.6v9.5c0.2,0.6,0.6,1.1,0.9,1.6s0.8,0.9,1.3,1.3
		s1.1,0.6,1.7,0.8s1.4,0.3,2.2,0.3c1.1,0,2-0.2,2.7-0.7s1.4-1.1,1.9-1.8s0.9-1.7,1.1-2.8s0.4-2.2,0.4-3.4V378z"/>
	<path d="M458.9,388.8h-2.3v-30h2.3V388.8z"/>
	<path d="M473.5,389.2c-1.4,0-2.6-0.3-3.8-0.8s-2.2-1.2-3-2.1s-1.5-2-2-3.3s-0.7-2.6-0.7-4.2V378c0-1.6,0.2-3.1,0.7-4.4
		s1.1-2.4,2-3.4s1.8-1.7,2.9-2.2s2.2-0.8,3.4-0.8c1.3,0,2.5,0.2,3.6,0.7s1.9,1.2,2.6,2s1.2,1.9,1.6,3.1s0.5,2.5,0.5,3.9v1.4h-15.1
		v0.4c0,1.2,0.2,2.2,0.5,3.3s0.8,1.9,1.5,2.7s1.4,1.4,2.3,1.8s1.9,0.7,2.9,0.7c1.3,0,2.4-0.2,3.3-0.7s1.8-1.2,2.6-2.2l1.5,1.1
		c-0.4,0.5-0.8,1-1.2,1.4s-1,0.9-1.6,1.2s-1.3,0.6-2.1,0.8S474.4,389.2,473.5,389.2z M473,369.3c-0.9,0-1.7,0.2-2.5,0.5
		s-1.4,0.8-2,1.4s-1.1,1.4-1.4,2.3s-0.6,1.9-0.8,2.9h12.7v-0.3c0-0.9-0.2-1.7-0.4-2.6s-0.6-1.6-1.1-2.2s-1.1-1.1-1.9-1.5
		S474,369.3,473,369.3z"/>
	<path d="M488.1,367.7l0.1,3.4c0.4-0.6,0.8-1.1,1.2-1.6s1-0.9,1.6-1.2s1.2-0.6,1.9-0.8s1.4-0.3,2.2-0.3c1.5,0,2.9,0.3,4,1
		s1.9,1.7,2.4,3.1c0.3-0.6,0.7-1.1,1.2-1.6s1-0.9,1.6-1.3s1.3-0.7,2-0.9s1.5-0.3,2.4-0.3c1.1,0,2.1,0.1,2.9,0.4s1.6,0.8,2.2,1.4
		s1,1.4,1.4,2.4s0.5,2.1,0.5,3.5v13.8h-2.3V375c0-1.1-0.1-2-0.4-2.8s-0.6-1.3-1.1-1.8s-1-0.7-1.6-0.9s-1.3-0.3-2.1-0.3
		c-1,0-1.9,0.2-2.6,0.5s-1.4,0.8-1.9,1.3s-0.9,1.1-1.2,1.8s-0.5,1.3-0.5,1.9v14h-2.3v-14c0-1.1-0.1-1.9-0.4-2.6s-0.6-1.3-1.1-1.7
		s-1-0.7-1.6-0.9s-1.3-0.3-2.1-0.3c-0.9,0-1.7,0.1-2.3,0.4s-1.3,0.7-1.8,1.1s-0.9,1-1.2,1.6s-0.6,1.2-0.8,1.9v14.5h-2.3v-21.1H488.1
		z"/>
	<path d="M547.8,381.8c0-0.8-0.1-1.5-0.4-2.1s-0.7-1.2-1.3-1.7s-1.4-1-2.4-1.4s-2.2-0.8-3.7-1.3c-1.4-0.4-2.7-0.8-3.9-1.3
		s-2.1-1-2.9-1.7s-1.4-1.4-1.9-2.2s-0.7-1.8-0.7-2.9c0-1.1,0.2-2.1,0.7-3s1.1-1.7,2-2.3s1.9-1.1,3-1.5c1.2-0.4,2.5-0.5,3.8-0.5
		c1.5,0,2.8,0.2,4.1,0.7c1.2,0.4,2.2,1,3.1,1.8c0.8,0.8,1.5,1.7,2,2.7s0.7,2.1,0.7,3.3h-2.4c0-0.9-0.2-1.8-0.5-2.6s-0.8-1.5-1.4-2
		s-1.4-1-2.3-1.3s-2-0.5-3.1-0.5s-2.2,0.1-3.1,0.4s-1.6,0.7-2.2,1.1s-1,1-1.3,1.7s-0.5,1.3-0.5,2c0,0.7,0.1,1.3,0.4,1.9
		s0.7,1.1,1.3,1.6s1.4,0.9,2.4,1.4s2.2,0.8,3.6,1.2c1.5,0.4,2.8,0.9,4,1.4s2.2,1.1,3,1.7s1.4,1.4,1.8,2.3s0.6,1.9,0.6,3
		c0,1.2-0.2,2.2-0.7,3.1s-1.2,1.7-2,2.3s-1.9,1.1-3.1,1.5s-2.5,0.5-3.9,0.5c-0.8,0-1.7-0.1-2.5-0.2s-1.7-0.4-2.5-0.7
		s-1.5-0.7-2.2-1.1s-1.3-1-1.8-1.6s-0.9-1.4-1.2-2.2s-0.4-1.7-0.4-2.7h2.4c0,1.2,0.2,2.2,0.7,3s1.1,1.5,1.9,2s1.7,0.9,2.6,1.1
		s2,0.3,2.9,0.3c1.1,0,2.1-0.1,3-0.4s1.7-0.6,2.3-1.1s1.1-1,1.5-1.7S547.8,382.6,547.8,381.8z"/>
	<path d="M553.5,377.9c0-1.5,0.2-3,0.7-4.3s1.1-2.4,1.9-3.4s1.8-1.7,3-2.2s2.4-0.8,3.9-0.8c1.4,0,2.8,0.3,3.9,0.8s2.2,1.3,3,2.2
		s1.5,2.1,1.9,3.4s0.7,2.7,0.7,4.3v0.6c0,1.5-0.2,3-0.7,4.3s-1.1,2.4-1.9,3.4s-1.8,1.7-3,2.2s-2.5,0.8-3.9,0.8s-2.7-0.3-3.9-0.8
		s-2.2-1.3-3-2.2s-1.5-2.1-1.9-3.4s-0.7-2.7-0.7-4.3V377.9z M555.9,378.6c0,1.2,0.2,2.3,0.5,3.3s0.8,2,1.4,2.8s1.3,1.4,2.2,1.9
		s1.9,0.7,3,0.7s2.2-0.2,3-0.7s1.6-1.1,2.2-1.9s1.1-1.7,1.4-2.8s0.5-2.2,0.5-3.3v-0.6c0-1.1-0.2-2.2-0.5-3.3s-0.8-2-1.4-2.8
		s-1.3-1.4-2.2-1.9s-1.9-0.7-3.1-0.7c-1.1,0-2.1,0.2-3,0.7s-1.6,1.1-2.2,1.9s-1.1,1.7-1.4,2.8s-0.5,2.1-0.5,3.3V378.6z"/>
	<path d="M579.8,388.8h-2.3v-30h2.3V388.8z"/>
	<path d="M592.8,385.6l6.4-17.9h2.4l-7.9,21.1h-1.9l-7.9-21.1h2.4L592.8,385.6z"/>
	<path d="M613.3,389.2c-1.4,0-2.6-0.3-3.8-0.8s-2.2-1.2-3-2.1s-1.5-2-2-3.3s-0.7-2.6-0.7-4.2V378c0-1.6,0.2-3.1,0.7-4.4
		s1.1-2.4,2-3.4s1.8-1.7,2.9-2.2s2.2-0.8,3.4-0.8c1.3,0,2.5,0.2,3.6,0.7s1.9,1.2,2.6,2s1.2,1.9,1.6,3.1s0.5,2.5,0.5,3.9v1.4h-15.1
		v0.4c0,1.2,0.2,2.2,0.5,3.3s0.8,1.9,1.5,2.7s1.4,1.4,2.3,1.8s1.9,0.7,2.9,0.7c1.3,0,2.4-0.2,3.3-0.7s1.8-1.2,2.6-2.2l1.5,1.1
		c-0.4,0.5-0.8,1-1.2,1.4s-1,0.9-1.6,1.2s-1.3,0.6-2.1,0.8S614.3,389.2,613.3,389.2z M612.9,369.3c-0.9,0-1.7,0.2-2.5,0.5
		s-1.4,0.8-2,1.4s-1.1,1.4-1.4,2.3s-0.6,1.9-0.8,2.9h12.7v-0.3c0-0.9-0.2-1.7-0.4-2.6s-0.6-1.6-1.1-2.2s-1.1-1.1-1.9-1.5
		S613.9,369.3,612.9,369.3z"/>
	<path d="M635.6,369.7c-0.5-0.1-1-0.1-1.6-0.1c-0.8,0-1.5,0.1-2.1,0.4s-1.2,0.6-1.7,1s-0.9,0.9-1.2,1.5s-0.6,1.2-0.8,1.9v14.5h-2.3
		v-21.1h2.3l0,3.4c0.6-1.2,1.4-2.1,2.3-2.7s2.2-1,3.6-1c0.3,0,0.6,0,0.9,0.1s0.5,0.1,0.7,0.2L635.6,369.7z"/>
</g>
</svg>
